0
SECTION
2
HEADER
9
$INSUNITS
70
4
9
$ACADVER
1
AC1014
9
$HANDSEED
5
FFFF
0
ENDSEC
0
SECTION
2
TABLES
0
TABLE
2
VPORT
5
8
100
AcDbSymbolTable
0
ENDTAB
0
TABLE
2
LTYPE
5
5
100
AcDbSymbolTable
0
LTYPE
5
14
100
AcDbSymbolTableRecord
100
AcDbLinetypeTableRecord
2
BYBLOCK
70
0
0
LTYPE
5
15
100
AcDbSymbolTableRecord
100
AcDbLinetypeTableRecord
2
BYLAYER
70
0
0
ENDTAB
0
TABLE
2
LAYER
5
2
100
AcDbSymbolTable
70
2
0
LAYER
5
50
100
AcDbSymbolTableRecord
100
AcDbLayerTableRecord
2
0
70
0
6
CONTINUOUS
0
ENDTAB
0
TABLE
2
STYLE
5
3
100
AcDbSymbolTable
70
1
0
STYLE
5
11
100
AcDbSymbolTableRecord
100
AcDbTextStyleTableRecord
2
STANDARD
70
0
0
ENDTAB
0
TABLE
2
VIEW
5
6
100
AcDbSymbolTable
70
0
0
ENDTAB
0
TABLE
2
UCS
5
7
100
AcDbSymbolTable
70
0
0
ENDTAB
0
TABLE
2
APPID
5
9
100
AcDbSymbolTable
70
2
0
APPID
5
12
100
AcDbSymbolTableRecord
100
AcDbRegAppTableRecord
2
ACAD
70
0
0
ENDTAB
0
TABLE
2
DIMSTYLE
5
A
100
AcDbSymbolTable
70
1
0
ENDTAB
0
TABLE
2
BLOCK_RECORD
5
1
100
AcDbSymbolTable
70
1
0
BLOCK_RECORD
5
1F
100
AcDbSymbolTableRecord
100
AcDbBlockTableRecord
2
*MODEL_SPACE
0
BLOCK_RECORD
5
1B
100
AcDbSymbolTableRecord
100
AcDbBlockTableRecord
2
*PAPER_SPACE
0
ENDTAB
0
ENDSEC
0
SECTION
2
BLOCKS
0
BLOCK
5
20
100
AcDbEntity
100
AcDbBlockBegin
2
*MODEL_SPACE
0
ENDBLK
5
21
100
AcDbEntity
100
AcDbBlockEnd
0
BLOCK
5
1C
100
AcDbEntity
100
AcDbBlockBegin
2
*PAPER_SPACE
0
ENDBLK
5
1D
100
AcDbEntity
100
AcDbBlockEnd
0
ENDSEC
0
SECTION
2
ENTITIES
0
LINE
5
100
100
AcDbEntity
8
0
100
AcDbLine
10
-76.449999999999946
20
-19.250000000000025
30
0
11
64.060000000000215
21
-19.250000000000025
31
0
0
LWPOLYLINE
5
101
100
AcDbEntity
8
0
100
AcDbPolyline
90
6
70
1
43
0.0
10
-38.383722633966698
20
4.680284806278534
10
-33.097110167328914
20
1.3776766507254323
42
0.49873989764211296
10
-31.605854572900718
20
1.9507440510026364
10
-30.36753866572511
20
6.2794006057869831
42
0.54805725652009396
10
-31.484312845901602
20
7.5423022288831776
10
-38.009241219714909
20
6.5162538296519124
42
0.69417649550536076
0
LWPOLYLINE
5
102
100
AcDbEntity
8
0
100
AcDbPolyline
90
8
70
1
43
0.0
10
-43.175000016372714
20
16.249999999999961
42
-0.99999999999999989
10
-42.175000016372472
20
16.250000000000018
10
-42.175000016372621
20
14.25000000000006
42
-0.99999999999999989
10
-43.175000016372564
20
14.250000000000277
10
-47.175000016372763
20
14.250000000000034
42
-0.99999999999999989
10
-48.175000016372707
20
14.249999999999886
10
-48.175000016372714
20
16.25000000000005
42
-0.99999999999999989
10
-47.175000016372756
20
16.250000000000178
0
LWPOLYLINE
5
103
100
AcDbEntity
8
0
100
AcDbPolyline
90
8
70
1
43
0.0
10
-68.025000016372701
20
-14.250000000000222
10
-64.025000016372644
20
-14.249999999999989
42
-0.99999999999999989
10
-63.025000016372701
20
-14.250000000000167
10
-63.025000016372701
20
-16.250000000000089
42
-0.99999999999999989
10
-64.025000016372644
20
-16.249999999999947
10
-68.025000016372701
20
-16.250000000000018
42
-0.99999999999999989
10
-69.025000016372644
20
-16.249999999999876
10
-69.025000016372644
20
-14.249999999999973
42
-0.99999999999999989
0
LWPOLYLINE
5
104
100
AcDbEntity
8
0
100
AcDbPolyline
90
8
70
1
43
0.0
10
-63.025000016372701
20
14.24999999999989
42
-0.99999999999999989
10
-64.025000016372644
20
14.250000000000027
10
-68.025000016372701
20
14.250000000000025
42
-0.99999999999999989
10
-69.025000016372644
20
14.250000000000167
10
-69.025000016372644
20
16.249999999999982
42
-0.99999999999999989
10
-68.025000016372701
20
16.249999999999911
10
-64.025000016372644
20
16.250000000000053
42
-0.99999999999999989
10
-63.025000016372701
20
16.249999999999911
0
ARC
5
105
100
AcDbEntity
8
0
100
AcDbCircle
10
-61.123276498593242
20
-5.8785267442829969
30
0
40
4.0000000000008278
210
0
220
0
230
1
100
AcDbArc
50
274.99999999999955
51
346.93259518011945
0
CIRCLE
5
106
100
AcDbEntity
8
0
100
AcDbCircle
10
-76.449999999999946
20
-15.250000000000021
30
0
40
1.5499999999999936
210
0
220
0
230
1
0
LINE
5
107
100
AcDbEntity
8
0
100
AcDbLine
10
-60.774653527602567
20
-9.863305536650806
30
0
11
-76.798622970990493
21
-11.265221207633028
31
0
0
ARC
5
108
100
AcDbEntity
8
0
100
AcDbCircle
10
-76.449999999999946
20
15.250000000000092
30
0
40
4.0000000000000036
210
0
220
-0
230
1
100
AcDbArc
50
90
51
264.99999999999937
0
LWPOLYLINE
5
109
100
AcDbEntity
8
0
100
AcDbPolyline
90
8
70
1
43
0.0
10
7.8638657173340487
20
3.9177355096474784
10
2.9501947143602081
20
0.84810821418187765
42
0.55438321313530947
10
2.9501947143602001
20
-0.84810821418194349
10
7.8638657173340212
20
-3.9177355096475712
42
0.50154121987854527
10
9.3575479105042767
20
-3.336039642953013
10
10.205998240271439
20
-0.26641234748732157
42
0.13565756356961509
10
10.205998240271439
20
0.26641234748732201
10
9.357547910504282
20
3.336039642952962
42
0.50154121987850397
0
LWPOLYLINE
5
110
100
AcDbEntity
8
0
100
AcDbPolyline
90
4
70
1
43
0.0
10
57.550000016372998
20
-6.1000000000000476
42
0.99999999999999989
10
57.550000016372998
20
-3.9000000000000239
10
47.550000016372998
20
-3.9000000000000234
42
0.99999999999999989
10
47.550000016372998
20
-6.1000000000000476
0
LWPOLYLINE
5
111
100
AcDbEntity
8
0
100
AcDbPolyline
90
8
70
1
43
0.0
10
65.688998383061133
20
9.5298114069407074
10
66.544048741375249
20
7.1805798549759459
42
-0.41421356237333617
10
66.245212502645217
20
6.5397234729202003
10
65.775366192252278
20
6.368713401257347
42
-0.41421356237299689
10
65.134509810196576
20
6.6675496399874445
10
64.279459451882275
20
9.0167811919522496
42
-0.41421356237331125
10
64.578295690612322
20
9.6576375740079676
10
65.048142001005402
20
9.8286476456708574
42
-0.41421356237302925
0
LWPOLYLINE
5
112
100
AcDbEntity
8
0
100
AcDbPolyline
90
6
70
1
43
0.0
10
27.306993853067354
20
16.499998343652372
42
1.0018217149061486
10
27.306993853067389
20
14.500001656257437
10
30.405173797480955
20
14.499999999954893
10
55.405173797480963
20
14.499999999954678
42
0.99999999999999989
10
55.405173797480963
20
16.499999999954671
10
30.405173797480955
20
16.499999999954902
0
LWPOLYLINE
5
113
100
AcDbEntity
8
0
100
AcDbPolyline
90
6
70
1
43
0.0
10
-31.484312845901602
20
-7.5423022288831554
42
0.54805725652010362
10
-30.367538665725135
20
-6.2794006057869725
10
-31.60585457290054
20
-1.9507440510025731
42
0.49873989764211613
10
-33.097110167329035
20
-1.3776766507253002
10
-38.383722633966642
20
-4.6802848062786673
42
0.69417649550536653
10
-38.009241219714902
20
-6.5162538296519124
0
LWPOLYLINE
5
114
100
AcDbEntity
8
0
100
AcDbPolyline
90
6
70
1
43
0.0
10
15.16320480516683
20
-3.0306493175317661
42
0.50148675529755182
10
13.669569002462929
20
-3.6121774039994694
10
12.660980591044508
20
-7.2586997026165703
42
0.50034863992215617
10
13.54197149694798
20
-8.3985196684664771
10
20.427509619013048
20
-8.2672793097583526
42
0.74458234901000331
10
20.88356076119895
20
-6.6042220642160876
0
LWPOLYLINE
5
115
100
AcDbEntity
8
0
100
AcDbPolyline
90
6
70
1
43
0.0
10
4.968881866464443
20
6.8255847735339259
10
0.52982304313545137
20
4.0524532142535818
42
-0.28668399343149625
10
-0.52982304313502482
20
4.0524532142535818
10
-4.968881866464443
20
6.8255847735340147
42
-0.75165877900625266
10
-4.4964990086246814
20
8.4888711258395944
10
4.4965084173097116
20
8.4888710791866373
42
-0.75165468882327757
0
LWPOLYLINE
5
116
100
AcDbEntity
8
0
100
AcDbPolyline
90
8
70
1
43
0.0
10
28.313164245842728
20
-0.27504081390494795
42
0.14022445672348702
10
28.31316424584271
20
0.27504081390493096
10
27.160462613659181
20
4.3044241456946803
42
0.49873989764212068
10
25.669207019230534
20
4.8774915459717594
10
19.219217449961405
20
0.84810821418207305
42
0.55438321313553496
10
19.219217449961413
20
-0.84810821418211335
10
25.669207019230811
20
-4.8774915459718766
42
0.49873989764211585
10
27.160462613659014
20
-4.3044241456946528
0
LWPOLYLINE
5
117
100
AcDbEntity
8
0
100
AcDbPolyline
90
8
70
1
43
0.0
10
-27.160462613657881
20
4.304424145698154
10
-28.313164245842444
20
0.27504081390494739
42
0.14022445672347852
10
-28.313164245842426
20
-0.27504081390493096
10
-27.160462613657899
20
-4.3044241456981061
42
0.49873989764222532
10
-25.66920701922923
20
-4.8774915459749799
10
-19.219217449959842
20
-0.84810821418193083
42
0.55438321313530958
10
-19.219217449959849
20
0.84810821418186466
10
-25.669207019229106
20
4.8774915459751265
42
0.49873989764237647
0
ARC
5
118
100
AcDbEntity
8
0
100
AcDbCircle
10
-76.449999999999946
20
-15.250000000000021
30
0
40
4.0000000000000018
210
0
220
0
230
1
100
AcDbArc
50
94.999999999998778
51
270
0
LWPOLYLINE
5
119
100
AcDbEntity
8
0
100
AcDbPolyline
90
4
70
1
43
0.0
10
27.305173797481075
20
-16.499999999954937
10
55.405173797480963
20
-16.499999999954742
42
0.99999999999999989
10
55.405173797480963
20
-14.499999999954749
10
27.305173797481075
20
-14.49999999995498
42
0.99999999999999989
0
LWPOLYLINE
5
120
100
AcDbEntity
8
0
100
AcDbPolyline
90
4
70
1
43
0.0
10
16.100000000000136
20
14.499999999954838
42
0.99999999999999989
10
16.100000000000136
20
16.499999999954831
10
-20.99999999999994
20
16.499999999954774
42
0.99999999999999989
10
-20.999999999999947
20
14.499999999954786
0
LWPOLYLINE
5
121
100
AcDbEntity
8
0
100
AcDbPolyline
90
8
70
1
43
0.0
10
-9.3575479105042803
20
-3.3360396429530148
42
0.5015412198785788
10
-7.8638657173338968
20
-3.9177355096474735
10
-2.9501947143600664
20
-0.84810821418187743
42
0.55438321313538441
10
-2.9501947143600669
20
0.84810821418191351
10
-7.86386571733388
20
3.9177355096475703
42
0.50154121987849876
10
-9.3575479105042465
20
3.3360396429529526
10
-10.205998240271301
20
0.26641234748732145
42
0.13565756356959879
10
-10.205998240271301
20
-0.26641234748732201
0
ARC
5
122
100
AcDbEntity
8
0
100
AcDbCircle
10
-13.52841207465616
20
7.498621817559723
30
0
40
0.89999999999993041
210
0
220
0
230
1
100
AcDbArc
50
-15.460865408217773
51
90.863844958981119
0
ELLIPSE
5
123
100
AcDbEntity
8
0
100
AcDbEllipse
10
0
20
0
30
0
11
-87.899327384149814
21
8.8518166141752716e-13
31
0.0
40
0.096701536324698009
41
4.867067428123363
42
4.9469300601759043
0
LINE
5
124
100
AcDbEntity
8
0
100
AcDbLine
10
-12.660980591044222
20
7.2586997026168376
30
0
11
-13.669569002462795
21
3.6121774039999721
31
0
0
LINE
5
125
100
AcDbEntity
8
0
100
AcDbLine
10
-13.669569002462651
20
-3.6121774039999899
30
0
11
-12.66098059104408
21
-7.2586997026167843
31
0
0
LWPOLYLINE
5
126
100
AcDbEntity
8
0
100
AcDbPolyline
90
4
70
1
43
0.0
10
-20.999999999999947
20
-14.499999999954856
42
0.99999999999999989
10
-20.999999999999947
20
-16.499999999954884
10
16.100000000000136
20
-16.499999999954866
42
0.99999999999999989
10
16.100000000000136
20
-14.499999999954873
0
ARC
5
127
100
AcDbEntity
8
0
100
AcDbCircle
10
-14.633381762031519
20
-3.8787575317143386
30
0
40
0.99999999999997669
210
0
220
-0
230
1
100
AcDbArc
50
15.460865408218808
51
121.99349934582742
0
ARC
5
128
100
AcDbEntity
8
0
100
AcDbCircle
10
-20.406720022372159
20
7.3675194569805136
30
0
40
0.89999999999998725
210
0
220
0
230
1
100
AcDbArc
50
91.323624557539972
51
238.00650065416937
0
ELLIPSE
5
129
100
AcDbEntity
8
0
100
AcDbEllipse
10
0
20
0
30
0
11
-87.899327384149814
21
-8.3236462373515112e-13
31
0.0
40
0.096701536324698009
41
1.3362552470036784
42
1.4161178790562237
0
ARC
5
130
100
AcDbEntity
8
0
100
AcDbCircle
10
-14.633381762031519
20
3.8787575317143208
30
0
40
0.99999999999998102
210
0
220
0
230
1
100
AcDbArc
50
238.00650065417841
51
344.53913459177903
0
LINE
5
131
100
AcDbEntity
8
0
100
AcDbLine
10
-15.163204805166828
20
3.0306493175324261
30
0
11
-20.883560761194062
21
6.604222064216879
31
0
0
ARC
5
132
100
AcDbEntity
8
0
100
AcDbCircle
10
-20.406720022372159
20
-7.3675194569805491
30
0
40
0.89999999999998792
210
0
220
0
230
1
100
AcDbArc
50
121.99349934582348
51
268.67637544243871
0
ARC
5
133
100
AcDbEntity
8
0
100
AcDbCircle
10
62.760000000000247
20
-6.2657191057210504
30
0
40
5.2999999999996605
210
0
220
0
230
1
100
AcDbArc
50
-20.00000000000237
51
0
0
LWPOLYLINE
5
134
100
AcDbEntity
8
0
100
AcDbPolyline
90
6
70
1
43
0.0
10
13.669569002462936
20
3.6121774039994929
10
12.660980591044364
20
7.2586997026165347
42
-0.50035187332004283
10
13.541980805467091
20
8.3985195281600511
10
20.427518782249905
20
8.267279097988494
42
-0.74457839147168403
10
20.883560761198932
20
6.6042220642160929
10
15.163204805166972
20
3.0306493175316995
42
-0.50148675529759423
0
LWPOLYLINE
5
135
100
AcDbEntity
8
0
100
AcDbPolyline
90
8
70
1
43
0.0
10
-42.175000016372472
20
-14.250000000000007
10
-42.175000016372621
20
-16.250000000000053
42
-0.99999999999999989
10
-43.175000016372564
20
-16.24999999999984
10
-47.175000016372763
20
-16.250000000000014
42
-0.99999999999999989
10
-48.175000016372707
20
-16.25000000000016
10
-48.175000016372714
20
-14.250000000000016
42
-0.99999999999999989
10
-47.175000016372756
20
-14.249999999999886
10
-43.175000016372714
20
-14.250000000000064
42
-0.99999999999999989
0
LWPOLYLINE
5
136
100
AcDbEntity
8
0
100
AcDbPolyline
90
4
70
1
43
0.0
10
57.550000016372998
20
3.8999999999999524
42
0.99999999999999989
10
57.550000016372998
20
6.0999999999999766
10
47.550000016372998
20
6.0999999999999943
42
0.99999999999999989
10
47.550000016372998
20
3.9000000000000057
0
CIRCLE
5
137
100
AcDbEntity
8
0
100
AcDbCircle
10
-34.750000032745447
20
-15.250000000000057
30
0
40
1.5499999999999936
210
0
220
0
230
1
0
LWPOLYLINE
5
138
100
AcDbEntity
8
0
100
AcDbPolyline
90
8
70
1
43
0.0
10
64.279459451882289
20
-9.0167811919522265
10
65.13450981019659
20
-6.66754963998752
42
-0.41421356237309676
10
65.775366192252278
20
-6.368713401257331
10
66.245212502645217
20
-6.5397234729202225
42
-0.41421356237282897
10
66.544048741375235
20
-7.1805798549760036
10
65.68899838306109
20
-9.5298114069407962
42
-0.41421356237307505
10
65.048142001005402
20
-9.8286476456709657
10
64.578295690612322
20
-9.6576375740080742
42
-0.41421356237325757
0
LINE
5
139
100
AcDbEntity
8
0
100
AcDbLine
10
68.059999999999974
20
12.50727450069391
30
0
11
68.059999999999974
21
15.249999999999968
31
0
0
LWPOLYLINE
5
140
100
AcDbEntity
8
0
100
AcDbPolyline
90
6
70
1
43
0.0
10
-0.52982304313512696
20
-4.0524532142536636
10
-4.9688818664644439
20
-6.825584773534068
42
0.75165877900619005
10
-4.4964990086248244
20
-8.4888711258395819
10
4.4964990086246805
20
-8.4888711258395784
42
0.75165877900625699
10
4.9688818664644598
20
-6.8255847735339703
10
0.52982304313559359
20
-4.0524532142535987
42
0.28668399343156103
0
CIRCLE
5
141
100
AcDbEntity
8
0
100
AcDbCircle
10
64.060000000000201
20
15.249999999999968
30
0
40
1.5500000000000005
210
0
220
0
230
1
0
LINE
5
142
100
AcDbEntity
8
0
100
AcDbLine
10
-20.883560761193966
20
-6.6042220642168559
30
0
11
-15.163204805166913
21
-3.0306493175325016
31
0
0
ARC
5
143
100
AcDbEntity
8
0
100
AcDbCircle
10
66.560000000000201
20
-12.50727450069391
30
0
40
1.4999999999997726
210
0
220
0
230
1
100
AcDbArc
50
0
51
48.604102155632724
0
LINE
5
144
100
AcDbEntity
8
0
100
AcDbLine
10
64.060000000000201
20
19.249999999999954
30
0
11
-76.449999999999946
21
19.250000000000096
31
0
0
LINE
5
145
100
AcDbEntity
8
0
100
AcDbLine
10
68.060000000000258
20
-15.250000000000021
30
0
11
68.059999999999974
21
-12.50727450069391
31
0
0
ARC
5
146
100
AcDbEntity
8
0
100
AcDbCircle
10
62.75999999999982
20
6.2657191057208728
30
0
40
5.3000000000001535
210
0
220
0
230
1
100
AcDbArc
50
0
51
20.000000000000664
0
ARC
5
147
100
AcDbEntity
8
0
100
AcDbCircle
10
65.060000000000002
20
-6.2500000000000533
30
0
40
2.9999999999999716
210
0
220
0
230
1
100
AcDbArc
50
0
51
80.603716766905364
0
ARC
5
148
100
AcDbEntity
8
0
100
AcDbCircle
10
68.543774475755157
20
-10.256799255475038
30
-1.6571141202571613e-47
40
1.4999999999999716
210
0
220
0
230
1
100
AcDbArc
50
159.9999999999977
51
228.60410215562371
0
ARC
5
149
100
AcDbEntity
8
0
100
AcDbCircle
10
67.32425178615955
20
6.5542825934696234
30
0
40
10.003178764532359
210
0
220
0
230
1
100
AcDbArc
50
247.26632985133347
51
259.78221682190718
0
ARC
5
150
100
AcDbEntity
8
0
100
AcDbCircle
10
64.060000000000201
20
-15.250000000000021
30
0
40
4.0000000000000036
210
0
220
0
230
1
100
AcDbArc
50
-89.999999999999801
51
0
0
ARC
5
151
100
AcDbEntity
8
0
100
AcDbCircle
10
-61.123276498593242
20
5.8785267442829081
30
0
40
4.0000000000007869
210
0
220
-0
230
1
100
AcDbArc
50
13.067404819887745
51
85.000000000000469
0
ARC
5
152
100
AcDbEntity
8
0
100
AcDbCircle
10
68.543774475755157
20
10.256799255474984
30
-1.6410775319966081e-47
40
1.4999999999999827
210
0
220
0
230
1
100
AcDbArc
50
131.39589784437177
51
200.00000000000165
0
ARC
5
153
100
AcDbEntity
8
0
100
AcDbCircle
10
64.060000000000201
20
15.249999999999968
30
0
40
3.9999999999997726
210
0
220
0
230
1
100
AcDbArc
50
0
51
90
0
ARC
5
154
100
AcDbEntity
8
0
100
AcDbCircle
10
66.559999999999917
20
12.50727450069391
30
0
40
1.5000000000002109
210
7.2345060460218348e-48
220
-8.2071208027608587e-48
230
1
100
AcDbArc
50
-48.604102155621405
51
0
0
LINE
5
155
100
AcDbEntity
8
0
100
AcDbLine
10
68.059999999999974
20
6.2499999999999822
30
0
11
68.059999999999974
21
6.2657191057208728
31
0
0
ARC
5
156
100
AcDbEntity
8
0
100
AcDbCircle
10
65.060000000000002
20
6.2499999999999822
30
0
40
3.0000000000000475
210
0
220
0
230
1
100
AcDbArc
50
-79.977940720756806
51
0
0
LINE
5
157
100
AcDbEntity
8
0
100
AcDbLine
10
67.740370890165252
20
8.0784258653470253
30
0
11
67.134235544576327
21
9.7437690404864465
31
-1.6410775319966081e-47
0
ARC
5
158
100
AcDbEntity
8
0
100
AcDbCircle
10
67.322355195344969
20
-6.5516307152679509
30
0
40
9.9999999999997904
210
0
220
0
230
1
100
AcDbArc
50
100.02205927925012
51
112.72951953596248
0
CIRCLE
5
159
100
AcDbEntity
8
0
100
AcDbCircle
10
64.060000000000201
20
-15.250000000000021
30
0
40
1.5500000000000005
210
0
220
0
230
1
0
LINE
5
160
100
AcDbEntity
8
0
100
AcDbLine
10
-76.798622970990621
20
11.265221207633109
30
0
11
-60.774653527602574
21
9.8633055366506781
31
0
0
ARC
5
161
100
AcDbEntity
8
0
100
AcDbCircle
10
65.309000216144142
20
-4.7961634663806763e-13
30
0
40
3.250000003103179
210
0
220
0
230
1
100
AcDbArc
50
124.70642285224773
51
235.29357740578254
0
LINE
5
162
100
AcDbEntity
8
0
100
AcDbLine
10
67.134235544576342
20
-9.7437690404864874
30
-1.6571141202571613e-47
11
67.740370890165167
21
-8.0784258653471852
31
0
0
ARC
5
163
100
AcDbEntity
8
0
100
AcDbCircle
10
-13.52841207465616
20
-7.4986218175597763
30
0
40
0.89999999999994851
210
0
220
0
230
1
100
AcDbArc
50
-90.863844958980678
51
15.460865408221935
0
CIRCLE
5
164
100
AcDbEntity
8
0
100
AcDbCircle
10
-34.750000032745447
20
15.250000000000039
30
0
40
1.5499999999999936
210
0
220
0
230
1
0
LINE
5
165
100
AcDbEntity
8
0
100
AcDbLine
10
68.059999999999903
20
-6.2657191057210504
30
0
11
68.059999999999974
21
-6.2500000000000533
31
0
0
CIRCLE
5
166
100
AcDbEntity
8
0
100
AcDbCircle
10
-76.449999999999946
20
15.250000000000092
30
0
40
1.5499999999999936
210
0
220
0
230
1
0
CIRCLE
5
167
100
AcDbEntity
8
0
100
AcDbCircle
10
21.750000032745763
20
15.249999999999968
30
0
40
1.549999999999998
210
0
220
0
230
1
0
CIRCLE
5
168
100
AcDbEntity
8
0
100
AcDbCircle
10
21.750000032745763
20
-15.250000000000057
30
0
40
1.5500000000000025
210
0
220
0
230
1
0
ARC
5
169
100
AcDbEntity
8
0
100
AcDbCircle
10
-86.450000000000102
20
-3.5527136788005003e-14
30
0
40
30.000000000000142
210
0
220
0
230
1
100
AcDbArc
50
-13.067404819885997
51
13.067404819886873
0
LWPOLYLINE
5
170
100
AcDbEntity
8
0
100
AcDbPolyline
90
16
70
1
43
0.0
10
-42.912736868153445
20
-8.0929656955902232
42
-0.23035791858026283
10
-50.787736868153452
20
-8.0929656955902178
42
-0.28700757539321797
10
-51.350236868153445
20
-7.1937472849690796
10
-51.350236868153445
20
-5.0990195135927872
42
0.18910303072944451
10
-51.616903534820111
20
-4.419150245113749
42
-0.39223227027636826
10
-51.616903534820111
20
4.4191502451137499
42
0.18910303072944565
10
-51.350236868153445
20
5.0990195135927872
10
-51.350236868153438
20
7.1937472849690796
42
-0.28700757539321797
10
-50.787736868153452
20
8.0929656955902161
42
-0.23035791858026333
10
-42.912736868153438
20
8.0929656955902178
42
-0.28700757539321797
10
-42.350236868153445
20
7.1937472849690796
10
-42.350236868153445
20
5.0990195135927854
42
0.18910303072944598
10
-42.083570201486779
20
4.4191502451137472
42
-0.39223227027636864
10
-42.083570201486786
20
-4.4191502451137552
42
0.18910303072944443
10
-42.350236868153452
20
-5.0990195135927951
10
-42.350236868153452
20
-7.1937472849690867
42
-0.28700757539322547
0
LWPOLYLINE
5
171
100
AcDbEntity
8
0
100
AcDbPolyline
90
16
70
1
43
0.0
10
42.444803645645102
20
-5.0990195135927951
10
42.444803645645102
20
-7.1937472849690867
42
-0.28700757539322547
10
41.882303645645102
20
-8.0929656955902232
42
-0.23035791858026283
10
34.007303645645102
20
-8.0929656955902178
42
-0.28700757539321797
10
33.444803645645109
20
-7.1937472849690796
10
33.444803645645109
20
-5.0990195135927872
42
0.18910303072944451
10
33.178136978978443
20
-4.419150245113749
42
-0.39223227027636826
10
33.178136978978443
20
4.4191502451137499
42
0.18910303072944565
10
33.444803645645109
20
5.0990195135927872
10
33.444803645645109
20
7.1937472849690796
42
-0.28700757539321797
10
34.007303645645109
20
8.0929656955902161
42
-0.23035791858026333
10
41.882303645645116
20
8.0929656955902178
42
-0.28700757539321797
10
42.444803645645109
20
7.1937472849690796
10
42.444803645645109
20
5.0990195135927854
42
0.18910303072944598
10
42.711470312311775
20
4.4191502451137472
42
-0.39223227027636864
10
42.711470312311768
20
-4.4191502451137552
42
0.18910303072944443
0
ENDSEC
0
SECTION
2
OBJECTS
0
DICTIONARY
5
C
100
AcDbDictionary
3
ACAD_GROUP
350
D
3
ACAD_MLINESTYLE
350
17
0
DICTIONARY
5
D
100
AcDbDictionary
0
DICTIONARY
5
1A
330
C
100
AcDbDictionary
0
DICTIONARY
5
17
100
AcDbDictionary
0
ENDSEC
0
EOF
